<svg width="400" height="400" viewBox="0 0 400 400" fill="none" xmlns="http://www.w3.org/2000/svg">
<rect width="400" height="400" rx="70" fill="#FF6C25"/>
<path d="M149.755 218.896C140.027 218.896 132.603 211.344 132.603 202.192C132.603 192.336 139.387 185.424 149.243 185.424C152.443 185.424 155.515 186.576 157.819 188.432L157.883 171.728H166.971V202.192C166.971 211.792 159.675 218.896 149.755 218.896ZM149.755 210.32C154.427 210.32 157.883 206.672 157.883 202.192C157.883 197.712 154.427 194 149.755 194C145.083 194 141.691 197.712 141.691 202.192C141.691 206.672 145.083 210.32 149.755 210.32ZM187.058 218.832C177.202 218.832 169.778 211.984 169.778 201.872C169.778 192.72 176.434 185.168 186.226 185.168C196.274 185.168 202.098 192.592 202.098 201.232V203.92H178.546C179.186 208.144 182.45 210.96 186.994 210.96C190.45 210.96 193.33 209.296 194.802 206.352L201.778 209.872C199.026 215.568 193.778 218.832 187.058 218.832ZM178.93 198.864H193.074C192.69 195.6 190.002 193.104 186.162 193.104C182.194 193.104 179.57 195.664 178.93 198.864ZM231.751 218H211.527C206.215 218 203.591 214.992 203.527 211.536C203.463 208.592 204.615 206.48 207.367 204.688L222.343 194.704C222.471 194.64 222.599 194.448 222.599 194.32C222.599 194 222.343 194 222.151 194H204.551V186.32H224.071C229.383 186.32 232.071 189.328 232.071 192.784C232.135 195.728 230.983 197.84 228.231 199.632L213.255 209.616C213.063 209.744 212.999 209.872 212.999 210.128C212.999 210.32 213.127 210.32 213.383 210.32H231.751V218ZM251.094 210.064C255.766 210.064 258.134 205.904 258.134 200.976V186.32H267.222V202.064C267.222 211.344 261.718 218.832 251.094 218.832C240.534 218.832 235.03 211.344 235.03 202.064V186.32H244.118V201.04C244.118 205.904 246.422 210.064 251.094 210.064Z" fill="#FBFFFF"/>
<path d="M186.176 224.87C187.786 224.87 188.606 226.03 188.606 227.41V230H187.186V227.65C187.186 226.89 186.856 226.25 186.076 226.25C185.306 226.25 184.976 226.88 184.976 227.63V230H183.556V227.64C183.556 226.88 183.226 226.25 182.456 226.25C181.666 226.25 181.356 226.89 181.356 227.64V230H179.936V227.41C179.936 226.03 180.746 224.87 182.346 224.87C183.296 224.87 183.986 225.29 184.276 225.97C184.586 225.29 185.286 224.87 186.176 224.87ZM194.749 230.13C193.209 230.13 192.049 229.06 192.049 227.48C192.049 226.05 193.089 224.87 194.619 224.87C196.189 224.87 197.099 226.03 197.099 227.38V227.8H193.419C193.519 228.46 194.029 228.9 194.739 228.9C195.279 228.9 195.729 228.64 195.959 228.18L197.049 228.73C196.619 229.62 195.799 230.13 194.749 230.13ZM193.479 227.01H195.689C195.629 226.5 195.209 226.11 194.609 226.11C193.989 226.11 193.579 226.51 193.479 227.01ZM203.069 230.14C201.549 230.14 200.389 228.96 200.389 227.53C200.389 225.99 201.449 224.91 202.989 224.91C203.489 224.91 203.969 225.09 204.329 225.38L204.339 222.77H205.759V227.53C205.759 229.03 204.619 230.14 203.069 230.14ZM203.069 228.8C203.799 228.8 204.339 228.23 204.339 227.53C204.339 226.83 203.799 226.25 203.069 226.25C202.339 226.25 201.809 226.83 201.809 227.53C201.809 228.23 202.339 228.8 203.069 228.8ZM210.358 224.31C209.878 224.31 209.478 223.92 209.478 223.43C209.478 222.95 209.878 222.55 210.358 222.55C210.838 222.55 211.228 222.95 211.228 223.43C211.228 223.92 210.838 224.31 210.358 224.31ZM209.648 225.05H211.068V230H209.648V225.05ZM217.155 230.13C215.715 230.13 214.705 228.95 214.705 227.51C214.705 226.09 215.865 224.9 217.385 224.9C218.935 224.9 220.075 226.02 220.075 227.51V230H218.725V229.42C218.375 229.86 217.835 230.13 217.155 230.13ZM217.385 228.8C218.115 228.8 218.655 228.22 218.655 227.52C218.655 226.82 218.115 226.24 217.385 226.24C216.655 226.24 216.125 226.82 216.125 227.52C216.125 228.22 216.655 228.8 217.385 228.8Z" fill="#FBFFFF"/>
</svg>
