<svg width="400" height="400" viewBox="0 0 400 400" fill="none" xmlns="http://www.w3.org/2000/svg">
<rect width="400" height="400" rx="55" fill="#FCF5E5"/>
<path d="M186.473 224.775C186.776 224.775 187.031 224.842 187.238 224.975C187.444 225.108 187.599 225.312 187.703 225.585C187.809 225.855 187.863 226.2 187.863 226.62V229H187.298V226.77C187.298 226.253 187.228 225.873 187.088 225.63C186.948 225.387 186.698 225.265 186.338 225.265C186.154 225.265 185.973 225.317 185.793 225.42C185.616 225.52 185.469 225.68 185.353 225.9C185.236 226.12 185.178 226.41 185.178 226.77V229H184.633V226.77C184.633 226.253 184.543 225.873 184.363 225.63C184.183 225.387 183.946 225.265 183.653 225.265C183.466 225.265 183.284 225.313 183.108 225.41C182.934 225.507 182.791 225.667 182.678 225.89C182.568 226.11 182.513 226.403 182.513 226.77V229H181.948V224.895H182.513V225.545C182.546 225.442 182.621 225.33 182.738 225.21C182.858 225.09 183.011 224.988 183.198 224.905C183.384 224.818 183.598 224.775 183.838 224.775C184.091 224.775 184.301 224.832 184.468 224.945C184.634 225.058 184.764 225.193 184.858 225.35C184.951 225.507 185.009 225.65 185.033 225.78C185.083 225.623 185.173 225.468 185.303 225.315C185.433 225.162 185.598 225.033 185.798 224.93C185.998 224.827 186.223 224.775 186.473 224.775ZM194.462 227.015C194.465 227.302 194.522 227.57 194.632 227.82C194.745 228.07 194.915 228.272 195.142 228.425C195.369 228.578 195.654 228.655 195.997 228.655C196.277 228.655 196.51 228.61 196.697 228.52C196.887 228.427 197.037 228.32 197.147 228.2C197.26 228.077 197.34 227.967 197.387 227.87L197.742 228.22C197.619 228.41 197.475 228.573 197.312 228.71C197.152 228.843 196.962 228.945 196.742 229.015C196.525 229.085 196.267 229.12 195.967 229.12C195.53 229.12 195.157 229.023 194.847 228.83C194.54 228.633 194.305 228.367 194.142 228.03C193.982 227.693 193.902 227.315 193.902 226.895C193.902 226.495 193.982 226.135 194.142 225.815C194.302 225.495 194.532 225.242 194.832 225.055C195.135 224.868 195.5 224.775 195.927 224.775C196.314 224.775 196.649 224.86 196.932 225.03C197.219 225.2 197.44 225.437 197.597 225.74C197.757 226.04 197.837 226.39 197.837 226.79C197.837 226.82 197.835 226.858 197.832 226.905C197.832 226.952 197.83 226.988 197.827 227.015H194.462ZM197.267 226.54C197.264 226.36 197.219 226.17 197.132 225.97C197.049 225.767 196.91 225.595 196.717 225.455C196.527 225.312 196.265 225.24 195.932 225.24C195.585 225.24 195.309 225.31 195.102 225.45C194.899 225.587 194.75 225.755 194.657 225.955C194.564 226.155 194.507 226.35 194.487 226.54H197.267ZM205.71 229.12C205.34 229.12 205.005 229.035 204.705 228.865C204.405 228.692 204.166 228.443 203.99 228.12C203.813 227.793 203.725 227.403 203.725 226.95C203.725 226.497 203.813 226.108 203.99 225.785C204.166 225.458 204.405 225.208 204.705 225.035C205.005 224.862 205.34 224.775 205.71 224.775C206.026 224.775 206.306 224.833 206.55 224.95C206.793 225.067 206.986 225.202 207.13 225.355C207.273 225.505 207.351 225.635 207.365 225.745V222.12H207.945V229H207.38V228.14C207.356 228.247 207.271 228.377 207.125 228.53C206.981 228.683 206.788 228.82 206.545 228.94C206.301 229.06 206.023 229.12 205.71 229.12ZM205.78 228.62C206.07 228.62 206.335 228.552 206.575 228.415C206.815 228.278 207.006 228.085 207.15 227.835C207.293 227.585 207.365 227.29 207.365 226.95C207.365 226.61 207.293 226.315 207.15 226.065C207.006 225.815 206.815 225.622 206.575 225.485C206.335 225.345 206.07 225.275 205.78 225.275C205.52 225.275 205.276 225.343 205.05 225.48C204.826 225.613 204.645 225.805 204.505 226.055C204.365 226.305 204.295 226.603 204.295 226.95C204.295 227.297 204.365 227.595 204.505 227.845C204.645 228.095 204.826 228.287 205.05 228.42C205.276 228.553 205.52 228.62 205.78 228.62ZM214.068 229V224.895H214.633V229H214.068ZM214.358 223.23C214.238 223.23 214.135 223.188 214.048 223.105C213.965 223.018 213.923 222.915 213.923 222.795C213.923 222.672 213.966 222.568 214.053 222.485C214.14 222.398 214.241 222.355 214.358 222.355C214.438 222.355 214.511 222.375 214.578 222.415C214.648 222.455 214.703 222.508 214.743 222.575C214.786 222.638 214.808 222.712 214.808 222.795C214.808 222.915 214.763 223.018 214.673 223.105C214.586 223.188 214.481 223.23 214.358 223.23ZM224.451 229V228.14C224.428 228.23 224.35 228.353 224.216 228.51C224.086 228.667 223.905 228.808 223.671 228.935C223.441 229.058 223.168 229.12 222.851 229.12C222.481 229.12 222.14 229.035 221.826 228.865C221.516 228.692 221.266 228.443 221.076 228.12C220.89 227.793 220.796 227.403 220.796 226.95C220.796 226.497 220.89 226.108 221.076 225.785C221.266 225.458 221.516 225.208 221.826 225.035C222.14 224.862 222.481 224.775 222.851 224.775C223.168 224.775 223.441 224.835 223.671 224.955C223.901 225.072 224.083 225.207 224.216 225.36C224.353 225.513 224.43 225.642 224.446 225.745V224.895H225.006V229H224.451ZM221.361 226.95C221.361 227.297 221.436 227.595 221.586 227.845C221.736 228.095 221.93 228.287 222.166 228.42C222.406 228.553 222.658 228.62 222.921 228.62C223.211 228.62 223.47 228.552 223.696 228.415C223.923 228.278 224.101 228.085 224.231 227.835C224.365 227.585 224.431 227.29 224.431 226.95C224.431 226.61 224.365 226.315 224.231 226.065C224.101 225.815 223.923 225.622 223.696 225.485C223.47 225.345 223.211 225.275 222.921 225.275C222.658 225.275 222.406 225.343 222.166 225.48C221.93 225.613 221.736 225.805 221.586 226.055C221.436 226.305 221.361 226.603 221.361 226.95Z" fill="black"/>
<path d="M151.516 213.768C149.02 213.768 146.823 213.171 144.924 211.976C143.047 210.76 141.575 209.107 140.508 207.016C139.463 204.904 138.94 202.525 138.94 199.88C138.94 197.235 139.463 194.867 140.508 192.776C141.575 190.664 143.047 189 144.924 187.784C146.823 186.568 149.02 185.96 151.516 185.96C153.287 185.96 154.855 186.248 156.22 186.824C157.607 187.4 158.716 188.083 159.548 188.872C160.38 189.661 160.871 190.365 161.02 190.984V168.968H169.18V213H161.116V208.424C160.775 209.171 160.145 209.96 159.228 210.792C158.311 211.624 157.191 212.328 155.868 212.904C154.545 213.48 153.095 213.768 151.516 213.768ZM153.82 207.304C155.185 207.304 156.412 206.995 157.5 206.376C158.588 205.736 159.441 204.861 160.06 203.752C160.7 202.621 161.02 201.331 161.02 199.88C161.02 198.429 160.7 197.149 160.06 196.04C159.441 194.909 158.588 194.024 157.5 193.384C156.412 192.744 155.185 192.424 153.82 192.424C152.561 192.424 151.409 192.744 150.364 193.384C149.319 194.003 148.476 194.877 147.836 196.008C147.217 197.117 146.908 198.408 146.908 199.88C146.908 201.352 147.217 202.653 147.836 203.784C148.476 204.893 149.319 205.757 150.364 206.376C151.409 206.995 152.561 207.304 153.82 207.304ZM177.207 201.672C177.271 202.867 177.591 203.933 178.167 204.872C178.743 205.811 179.575 206.547 180.663 207.08C181.772 207.613 183.095 207.88 184.631 207.88C186.018 207.88 187.234 207.709 188.279 207.368C189.346 207.027 190.242 206.611 190.967 206.12C191.714 205.608 192.268 205.117 192.631 204.648L195.991 209.64C195.394 210.387 194.594 211.08 193.591 211.72C192.61 212.339 191.351 212.829 189.815 213.192C188.3 213.576 186.402 213.768 184.119 213.768C181.239 213.768 178.711 213.203 176.535 212.072C174.359 210.941 172.663 209.309 171.447 207.176C170.231 205.043 169.623 202.504 169.623 199.56C169.623 197 170.167 194.696 171.255 192.648C172.343 190.579 173.922 188.947 175.991 187.752C178.082 186.557 180.588 185.96 183.511 185.96C186.263 185.96 188.642 186.493 190.647 187.56C192.674 188.605 194.242 190.141 195.351 192.168C196.46 194.195 197.015 196.669 197.015 199.592C197.015 199.763 197.004 200.115 196.983 200.648C196.983 201.16 196.962 201.501 196.919 201.672H177.207ZM189.399 196.648C189.378 195.965 189.164 195.229 188.759 194.44C188.375 193.651 187.767 192.979 186.935 192.424C186.103 191.869 184.994 191.592 183.607 191.592C182.22 191.592 181.079 191.859 180.183 192.392C179.308 192.925 178.647 193.587 178.199 194.376C177.751 195.144 177.495 195.901 177.431 196.648H189.399ZM197.799 186.728H222.632L208.52 207.208H221.736V213H195.816L209.928 192.488H197.799V186.728ZM230.534 199.304C230.534 201.651 231.003 203.528 231.942 204.936C232.881 206.323 234.395 207.016 236.486 207.016C238.598 207.016 240.123 206.323 241.062 204.936C242.001 203.528 242.47 201.651 242.47 199.304V186.728H250.47V200.232C250.47 202.941 249.926 205.32 248.838 207.368C247.75 209.395 246.161 210.973 244.07 212.104C242.001 213.213 239.473 213.768 236.486 213.768C233.521 213.768 230.993 213.213 228.902 212.104C226.833 210.973 225.254 209.395 224.166 207.368C223.078 205.32 222.534 202.941 222.534 200.232V186.728H230.534V199.304ZM259.505 213.768C258.076 213.768 256.85 213.256 255.826 212.232C254.801 211.208 254.289 209.981 254.289 208.552C254.289 207.08 254.801 205.832 255.826 204.808C256.85 203.784 258.076 203.272 259.505 203.272C260.977 203.272 262.215 203.784 263.218 204.808C264.242 205.832 264.753 207.08 264.753 208.552C264.753 209.981 264.242 211.208 263.218 212.232C262.215 213.256 260.977 213.768 259.505 213.768Z" fill="black"/>
</svg>
